<?xml version="1.0" encoding="utf-8"?>
<!-- Generator: Adobe Illustrator 28.0.0, SVG Export Plug-In . SVG Version: 6.00 Build 0)  -->
<svg version="1.1" id="Layer_1" xmlns="http://www.w3.org/2000/svg" xmlns:xlink="http://www.w3.org/1999/xlink" x="0px" y="0px"
	 viewBox="0 0 1920 1080" style="enable-background:new 0 0 1920 1080;" xml:space="preserve">
<g>
	<g>
		<path d="M-1765.23,189.25c121.68-53.79,244.91-103.15,377.58-121.4c128.89-17.73,264.51-13.77,383.88,42.34
			c50.62,23.8,98.97,52.08,152.81,68.35c63.08,19.06,129.77,22.16,195.25,20.41c145.67-3.9,291.69-22.83,436.77-35.75
			c301.2-26.82,602.4-53.65,903.6-80.47c301.04-26.81,602.03-54.09,903.11-80.43c66.6-5.83,132.15-8.48,189.57,31.05
			c60.34,41.55,118.47,86.72,177.56,130.04c47.04,34.49,94.23,56.76,153.83,56.72c58.11-0.04,115.1-19.04,165.3-47.52
			c21.73-12.33,42.23-26.62,61.42-42.59c1.49-1.24-0.65-3.35-2.12-2.12c-98.18,81.67-244.36,125.96-357.1,47.29
			c-60.28-42.07-118.76-86.97-178.05-130.43c-19.75-14.48-39.52-28.61-62.65-37.2c-28.54-10.6-59.34-12.54-89.52-11.91
			c-72.14,1.5-144.64,11.37-216.48,17.76c-74.62,6.65-149.24,13.29-223.87,19.94c-150.6,13.41-301.2,26.82-451.8,40.24
			c-299.84,26.7-599.69,53.41-899.53,80.11c-147.16,13.11-294.33,28.49-441.71,38.82c-70.07,4.91-141.53,7.34-211.04-4.66
			c-63.21-10.91-119.26-38.1-176.04-66.63c-51.44-25.84-103.8-46.22-160.8-55.84c-60.35-10.19-122.14-11.55-183.13-7.55
			c-128.05,8.39-250.36,44.65-368.22,94.06c-26.86,11.26-53.51,23.02-80.15,34.79C-1768.51,187.44-1766.98,190.02-1765.23,189.25
			L-1765.23,189.25z"/>
	</g>
</g>
<g>
	<g>
		<path d="M-1389.46,335.18c277.36-17.7,554.73-35.41,832.09-53.11c138.05-8.81,276.11-17.62,414.16-26.43
			c123.47-7.88,247.68-20.32,371.51-17.5c51.53,1.17,103.81,4.6,154.04,16.81c40.65,9.88,78.18,25.72,103.02,60.68
			c23.13,32.54,44.27,54.55,85.98,60.64c30.83,4.51,62.33,0.7,93.02-3.15c34.09-4.28,68.18-8.61,102.29-12.78
			c272.49-33.26,545.73-60.31,819.43-81.42c64.42-4.97,128.98-10.45,193.64-9.97c63.48,0.47,123.47,9.38,183.99,28.38
			c54.14,17,107.05,22.85,163.44,14.77c57.99-8.3,113.69-27.27,170.14-42.23c31.83-8.44,63.93-15.5,96.61-19.66
			c1.89-0.24,1.91-3.24,0-3c-116.06,14.77-226.96,74.15-345.78,65.13c-61.13-4.64-117.24-32.39-177.9-40.58
			c-62.13-8.39-125.31-6.54-187.72-2.79c-272.73,16.41-545.34,44.93-816.68,76.54c-67.21,7.83-134.35,16.18-201.48,24.61
			c-57.01,7.16-124.56,14.25-163.25-37.15c-10.23-13.59-18.57-28.53-31.07-40.3c-12.01-11.31-26.63-19.52-41.71-25.99
			c-38.52-16.51-81.12-23.01-122.56-27.1c-114.24-11.28-229.42-0.95-343.56,6.33c-139.31,8.89-278.62,17.78-417.93,26.67
			c-276.11,17.62-552.22,35.25-828.33,52.87c-35.14,2.24-70.28,4.49-105.42,6.73C-1391.37,332.31-1391.39,335.31-1389.46,335.18
			L-1389.46,335.18z"/>
	</g>
</g>
<g>
	<g>
		<path d="M577.46-179.3C454.86-93.98,331.55-9.47,200.05,61.73C65.97,134.32-75.29,192.44-221.83,234.57
			c-154.81,44.5-314.62,72.08-475.47,81.15c-79.64,4.49-163.28-2.98-239.94,23.01c-35.46,12.03-68.86,29.64-102.49,45.9
			c-40.22,19.45-80.44,38.89-120.67,58.34c-160.21,77.45-320.41,154.9-480.62,232.35c-19.77,9.56-39.54,19.12-59.31,28.67
			c-1.74,0.84-0.22,3.43,1.51,2.59c160.21-77.45,320.41-154.9,480.62-232.35c77.96-37.69,155.52-76.39,233.98-113
			c37.39-17.45,75.74-30.1,116.85-34.91c41.44-4.85,83.34-4.11,124.98-5.55c160.16-5.54,319.7-29.61,474.64-70.45
			c144.18-38.01,284.01-90.99,416.95-158.54c135-68.59,261.43-151.78,385.73-237.9c14.69-10.18,29.36-20.38,44.03-30.59
			C580.55-177.8,579.05-180.4,577.46-179.3L577.46-179.3z"/>
	</g>
</g>
<g>
	<g>
		<path d="M-519.81,163.93c106.01,56.12,227.23,80.08,344.31,100.72c134.99,23.8,271.3,40.27,405.46,68.7
			c139.3,29.52,272.03,77.96,399.46,141.25c116.87,58.05,228.93,125.28,346.59,181.78c237.19,113.91,490.57,192.34,745.38,255.83
			c290.7,72.44,586.11,124.93,882.13,170.17c149.81,22.9,299.91,43.79,450.13,63.77c76.74,10.21,153.5,20.24,230.29,30.05
			c40.72,5.2,81.81,10.36,122.95,8.27c29.14-1.48,61.89-5.88,86.51-22.87c11.32-7.81,20.03-18.39,13.14-31.99
			c-0.87-1.72-3.46-0.21-2.59,1.51c19.82,39.11-82.43,49.76-100.89,50.49c-38.6,1.53-77.13-3.07-115.35-7.94
			c-74.38-9.48-148.74-19.2-223.07-29.07c-151.19-20.07-302.27-41.04-453.05-64.02c-286.1-43.6-571.59-93.95-852.92-162.3
			c-253.89-61.69-506.4-137.56-744.13-247.09c-112.88-52.01-220.23-114.51-330.31-172c-119.43-62.38-243-115.84-373.63-149.99
			c-127.61-33.36-258.84-50.82-388.91-71.45c-122.45-19.42-247.35-39.01-364-82.53c-26.02-9.71-51.43-20.89-75.98-33.89
			C-520,160.44-521.52,163.03-519.81,163.93L-519.81,163.93z"/>
	</g>
</g>
<g>
	<g>
		<path d="M1973.38,158.11c-141.62,61.27-286.73,114.31-433.89,160.64c-151.01,47.54-305,92.3-461.03,120.08
			c-82.36,14.66-164.93,20.58-248.41,23.81c-79.45,3.07-157.98,8.42-235.99,24.54c-77.17,15.95-152.9,38.54-228.8,59.55
			c-82.85,22.93-165.69,45.87-248.54,68.8C-48.2,661.19-213.12,706.84-378.04,752.5c-20.13,5.57-40.26,11.15-60.39,16.72
			c-1.86,0.51-1.07,3.41,0.8,2.89c165.69-45.87,331.39-91.74,497.08-137.6c82.07-22.72,164.15-45.44,246.22-68.16
			c78.5-21.73,156.78-44.81,235.9-64.18c79.88-19.55,160.18-30.72,242.3-34.6c80.14-3.78,160.08-5.64,239.64-16.91
			c77.92-11.03,154.75-28.4,230.97-47.82c79.24-20.19,158.04-42.12,236.29-65.88c147.76-44.87,293.61-96.29,436.11-155.83
			c16.05-6.71,32.05-13.52,48.01-20.43C1976.66,159.94,1975.14,157.35,1973.38,158.11L1973.38,158.11z"/>
	</g>
</g>
<g>
	<g>
		<path d="M-980.84,188.37c93.46,106.24,192.04,207.95,309.85,287.5c148.66,100.38,318.98,160.48,494.86,191.86
			c188.58,33.65,380.89,40.64,571.79,50.81c187.35,9.99,377.32,19.66,560.4,63.6c86.76,20.82,168.91,53.71,252.03,85.56
			c86.25,33.05,174.65,61.86,267.38,68.38c25.27,1.78,50.59,1.9,75.89,0.61c1.92-0.1,1.93-3.1,0-3
			c-97.7,4.96-192.46-15.32-284.25-47.42c-84.51-29.55-166.29-66.65-252.36-91.7c-174.13-50.69-357.69-63.9-537.89-74.51
			c-192.94-11.37-386.88-16.3-578.48-43.48c-181.1-25.69-358.8-76.06-516.56-170.65c-125.15-75.04-230.86-174.84-327.89-282.92
			c-10.95-12.19-21.8-24.46-32.62-36.76C-980,184.8-982.11,186.92-980.84,188.37L-980.84,188.37z"/>
	</g>
</g>
<g>
	<g>
		<path d="M1636.17-122.64c-72.21,66.68-160.49,114.3-250.13,153.2c-110.8,48.07-227.03,83.32-344.16,112.19
			c-261.99,64.57-531.19,95.35-799.43,120.11c-273.51,25.25-547.78,42.74-820.63,74.83c-251.16,29.54-504.36,68.89-745.25,148.08
			c-119.06,39.14-230.92,94.91-347.52,140.26c-120.94,47.05-248.75,77.92-378.94,80.65c-32.72,0.69-65.38-0.57-97.95-3.72
			c-1.92-0.19-1.91,2.82,0,3c126.93,12.26,256-5.63,377.73-42.26c124.53-37.47,239.95-98.02,361.08-144.4
			c239.42-91.68,496.06-135.85,749.34-168.57c274.22-35.43,550.22-53.82,825.56-77.99c268.24-23.55,537.47-51.18,800.77-109.36
			c121.28-26.8,241.66-59.78,357.68-104.4c93.98-36.15,187.07-79.9,267.73-140.85c16.04-12.12,31.47-25,46.25-38.64
			C1639.72-121.83,1637.59-123.95,1636.17-122.64L1636.17-122.64z"/>
	</g>
</g>
<g>
	<g>
		<path d="M-2112.2-96.87c302.82,124.19,642.14,150.69,965.76,165.68C-763.51,86.55-379.37,83.55,3.87,87.63
			c99.75,1.06,199.73,0.25,299.44,3.49c52.79,1.71,102.64,9.03,150.58,32.04c30.52,14.64,59.74,31.07,91.66,42.66
			c148.8,54.03,316.63,53.16,472.8,51.44c190.32-2.1,380.43-9.15,570.8-8.62c197.8,0.55,395.6,5.39,593.19,14.56
			c392.88,18.23,785.07,53.39,1174.71,107.14c47.33,6.53,94.61,13.35,141.86,20.42c1.89,0.28,2.7-2.61,0.8-2.89
			c-380.59-56.93-763.75-96.06-1147.9-118.74c-394.36-23.28-789.62-28.96-1184.51-18.09c-172.38,4.74-349.5,12.64-519.69-20.74
			c-35.58-6.98-70.85-16.04-104.86-28.68c-35.87-13.33-68.29-33.36-103.34-48.4C358.26,78.37,263.5,87.39,177.24,86.47
			c-389.27-4.14-778.94-3.49-1168.07-14.86c-339.66-9.93-691.96-27.26-1017.39-133.44c-34.86-11.37-69.25-24.02-103.18-37.93
			C-2113.18-100.49-2113.96-97.59-2112.2-96.87L-2112.2-96.87z"/>
	</g>
</g>
<g>
	<g>
		<path d="M-606.02,393.51C77.85,127,845.97,44.18,1561.85,221.44c347.1,85.95,681.04,217.04,1026.61,308.77
			c188.33,50,378.62,92.6,570.09,128.7c85.6,16.14,176.46,39.56,264.02,27.91c82.17-10.93,160.19-56.79,233.54-92.64
			c149.06-72.87,299.21-153.62,425.13-262.97c49.07-42.61,94.91-90.53,128.65-146.39c19.48-32.25,63.38-101,24.75-132.07
			c-23.56-18.95-60.38-23.52-88.91-27.71c-47.53-6.97-95.87-9.65-143.86-10.58c-98.52-1.91-196.98,5.91-294.73,17.62
			c-191.25,22.92-381.32,55.64-572.37,80.43c-373.68,48.5-748.87,87.76-1120.22,152.63c-180.42,31.51-359.89,69.3-536.22,119.05
			c-180.09,50.82-356.44,113.67-530.64,181.8C621.77,693.47,301.76,835.95-33.8,937.26c-174.37,52.65-351.91,95.04-531.85,123.64
			c-98.64,15.68-198.41,28.49-298.18,34.24c-95.73,5.52-187.14-5.43-272.79-50.9c-74.81-39.71-144.24-92.55-212.04-142.91
			c-74.82-55.57-147.35-114.37-215.96-177.47c-117.56-108.13-226.48-230.14-302.17-371.71c-36.04-67.41-73-147.19-78.27-224.49
			c-6.16-90.33,55.72-150.49,132.21-185.1c177.73-80.43,389.67-33.26,570.28,11.75C-494.26,140.8,248.47,349.7,967.52,630.13
			c166.37,64.88,337.57,129.19,515.35,153.93c86.14,11.99,174.67,12.62,257.84-15.55c76.66-25.97,150.38-68.58,215.57-116.16
			c96.32-70.3,199.09-178.45,195.05-306.74c-4.41-139.96-141.66-218.29-260.03-256.14c-167.52-53.57-342.6-49.7-512.05-7.86
			c-168.38,41.58-334.4,94.17-498.93,148.81c-319,105.94-633.05,226.29-953.08,329.22c-341.41,109.8-689.94,197.31-1046.33,241.15
			c-94.34,11.61-193.09,25.71-287.64,8.79c-85.26-15.26-161.1-63.6-215.99-130.1c-51.29-62.14-75.51-138.55-81.32-218.05
			c-2.13-29.21-9.07-70.35,6.23-96.93c27.32-47.48,98.22-35.11,139.22-15.2c82.51,40.08,160.27,95.01,238.94,142.19
			c86.64,51.96,173.29,103.92,259.93,155.88c0.52,0.31,1.41,0.27,1.82-0.23c42.08-52.8,38.89-111.79,29.79-175.32
			c-5.53-38.61-11.97-78.68-2.14-117.21c11.47-44.97,44.15-77.78,81.34-103.23c74.58-51.03,164.37-79.68,249.98-106.09
			c86.32-26.63,173.65-50.24,261.16-72.63C-53.58-25.61,338.73-91.82,733.09-132.32c101.7-10.44,203.98-21.22,306.14-25.79
			c92.02-4.12,176.39,13.02,251.55,67.9c54.46,39.76,104.3,85.39,159.3,124.64c58.06,41.44,118.37,79.69,180.16,115.32
			c298.05,171.84,628.3,286.6,961.51,368.14c45.76,11.2,91.68,21.73,137.73,31.63c6.19,1.33,30.89,2.95,34.98,7.39
			c9.63,10.46,4.04,12.32-3.32,22.52c-15.14,21.01-33.74,39.42-53.22,56.38c-68.05,59.25-149.33,106.68-228.76,149.05
			c-170.95,91.19-355.64,129.14-547.23,146.66c-413.39,37.81-831.55,26.05-1245.78,11.15c-419.1-15.07-838.17-37.72-1257.68-34.44
			c-48.84,0.38-117.04,9.74-155.22-27.67c-23.33-22.86-34.07-64.06-41.41-95.12c-20.37-86.15,24.46-147.58,103.51-179.69
			c85.09-34.55,181.24-40.62,271.93-45.5c102.01-5.49,204.27-7.49,306.4-9.19c412.55-6.89,825.3,3.68,1237.74-10.61
			c199.29-6.9,398.95-18.9,596.88-43.8c158.2-19.9,328.3-45.7,471.67-119.54c44.08-22.7,88-52.23,112.42-96.67
			c0.46-0.84,0.06-1.95-0.9-2.2c-286.64-75-586.99-84.29-881.68-75.92c-322.54,9.16-644.23,40.92-965.67,67.4
			c-337.58,27.81-675.16,55.63-1012.74,83.44c-319.76,26.35-642.88,42.8-959.36,97.87c-159.72,27.79-320.92,65.88-467.3,137.43
			c-90.47,44.22-206.39,112.23-227.2,220.35c-0.36,1.89,2.53,2.69,2.89,0.8c12.61-65.49,62.8-115.14,114.76-153.04
			c68.27-49.79,146.98-85.13,226.05-113.87c183.96-66.86,380.29-97.71,573.92-120.79c204.45-24.37,410.04-38.86,615.2-55.77
			c212.31-17.49,424.63-34.99,636.94-52.48c412.53-33.99,825.13-74.42,1238.39-98.41c194.62-11.3,389.92-16.98,584.75-7.67
			c96.85,4.63,193.6,13.01,289.56,27.05c42.8,6.26,85.44,13.65,127.8,22.38c20.79,4.28,41.51,8.89,62.15,13.85
			c6.31,1.52,26.01,3.19,30.59,7.63c9.51,9.2,1.43,14.41-6.74,24.57c-42.73,53.14-112.85,83.09-175.14,105.75
			c-80.51,29.29-164.7,48.32-248.89,63.44c-198.39,35.63-401.26,49.58-602.35,59.52c-411.73,20.37-824.11,11.04-1236.14,14.58
			c-104.14,0.9-208.27,2.59-312.37,5.78c-92.72,2.85-186.16,4.93-278.02,18.87c-69.98,10.62-154.54,27.58-204.82,82.19
			c-36,39.1-38.36,90.65-25.41,139.93c15.5,58.96,36.48,106.14,102.34,115.74c43.71,6.37,89.54,2.32,133.56,2.14
			c55.06-0.23,110.12-0.03,165.17,0.53c211.88,2.13,423.65,9.51,635.37,17.78c422.26,16.51,844.85,36.83,1267.54,26.12
			c198.68-5.03,400.57-11.28,596.5-47.14c174.3-31.91,331.12-102.08,479.38-197.76c62.63-40.42,129.45-85.83,167.32-151.91
			c0.45-0.79,0.07-2-0.9-2.2c-408.2-84.29-817.33-213.24-1176.97-427.91c-74.7-44.59-147.06-93.2-215.52-146.91
			c-59.62-46.77-113.79-100.03-187.08-125.02c-102.31-34.88-217.68-14.43-322.75-5.33c-120.57,10.45-240.93,23.32-360.97,38.7
			C288.23-81.12,63.87-43.48-158.39,4.07c-215.73,46.16-436.4,95.47-643.47,172.66c-73.32,27.33-161.87,61.49-208.72,128.18
			c-48.75,69.38-16.79,150.01-13.95,226.73c0.82,22.27-0.99,44.91-8.29,66.09c-5.04,14.61-10.81,30.69-25.94,36.18
			c-17.62,6.4-32.3-8.85-48.19-18.38c-52.35-31.39-104.69-62.78-157.04-94.18c-54.15-32.47-108.3-64.95-162.46-97.42
			c-45.37-27.21-90.44-59.98-139.03-81.14c-48.18-20.99-133.53-23.26-142.73,44.42c-9.72,71.56,7.1,158.88,37.92,223.46
			c36.76,77,104.92,142.57,182.78,177.44c92.97,41.64,199.04,34.22,297.75,23.82c426.9-44.99,842.09-155.88,1248.06-292.27
			c390.53-131.21,774.7-281.49,1171.22-394.43c110.68-31.52,222.85-64.62,338.26-72.04c108.34-6.97,219.25,6.1,322.71,39.18
			c92.27,29.5,192.97,79.32,237.34,170.73c40.32,83.08,14.93,175.57-34.51,248.53c-56.84,83.88-141.51,146.71-228.87,195.85
			c-102.88,57.87-205.9,88.24-324.74,79.69c-224.77-16.17-441.11-109.11-648.64-190.15C461.13,429.11,19.89,291.59-424.39,167.15
			c-233.6-65.43-468.22-127.13-703.32-186.9c-205.7-52.29-439.49-126.04-649.67-54.84c-64.45,21.84-134.6,61.7-160.54,128.43
			c-31.07,79.93,9.73,175.34,43.08,248.42c77.67,170.22,206.33,314.05,344.07,438.26c78.55,70.83,161.87,136.27,247.84,197.84
			c77.69,55.63,157.54,116.56,250.54,143.73c105.69,30.87,219.39,15.61,326.87,3.52c109.87-12.36,219.13-29.95,327.41-52.28
			C24,946.29,419.51,781.61,817.5,621.03c209.51-84.53,420.97-164.67,638.21-227.25c215.59-62.11,435.89-106.18,657.21-142.17
			c457.01-74.32,918.53-116.5,1376.28-185.82c123.3-18.67,246.83-37.34,371.41-45.01c59.25-3.65,118.69-4.82,178.01-2.15
			c56.9,2.56,120.42,3.7,173.74,25.72c20.84,8.61,35.33,36.36,31.45,58.26c-1.44,8.11-5.31,16.31-8.3,23.98
			c-7.68,19.7-17.27,38.61-28.2,56.7c-22.68,37.55-51.06,71.48-81.88,102.58c-68.98,69.62-150.37,126.39-233.73,177.36
			c-93.29,57.04-190.87,106.91-289.68,153.61c-50.85,24.04-102.48,51.77-157.96,63.28c-63.91,13.26-129.47,3.78-192.93-7.34
			c-234.17-41.01-466.73-92.57-696.2-154.67c-420.92-113.92-826.89-283.83-1258.86-354.85C854.73,90.71,399.52,121.12-35.72,217.94
			c-194.32,43.23-385.59,100.38-571.1,172.68C-608.6,391.31-607.83,394.21-606.02,393.51L-606.02,393.51z"/>
	</g>
</g>
</svg>
